<svg xmlns="http://www.w3.org/2000/svg" version="1.1" xmlns:xlink="http://www.w3.org/1999/xlink" xmlns:svgjs="http://svgjs.dev/svgjs" width="2000" height="1247" viewBox="0 0 2000 1247"><g transform="matrix(1,0,0,1,-1.2121212121212466,0.504858299595071)"><svg viewBox="0 0 396 247" data-background-color="#001f3f" preserveAspectRatio="xMidYMid meet" height="1247" width="2000" xmlns="http://www.w3.org/2000/svg" xmlns:xlink="http://www.w3.org/1999/xlink"><g id="tight-bounds" transform="matrix(1,0,0,1,0.2400000000000091,-0.09999999999999432)"><svg viewBox="0 0 395.52 247.2" height="247.2" width="395.52"><rect width="395.52" height="247.2" fill="url(#3a5debb8-c561-46c6-90c6-816c1aefc054)" mask="url(#9f4a8914-8deb-475e-9fbd-16f5436df090)" data-fill-palette-color="tertiary"></rect><g><svg></svg></g><g><svg viewBox="0 0 395.52 247.2" height="247.2" width="395.52"><g transform="matrix(1,0,0,1,79.32064719101123,47.215199999999996)"><svg viewBox="0 0 236.87870561797752 152.7696" height="152.7696" width="236.87870561797752"><g><svg viewBox="0 0 236.87870561797752 152.7696" height="152.7696" width="236.87870561797752"><g><svg viewBox="0 0 236.87870561797752 152.7696" height="152.7696" width="236.87870561797752"><g><svg viewBox="0 0 236.87870561797752 152.7696" height="152.7696" width="236.87870561797752"><g id="textblocktransform"><svg viewBox="0 0 236.87870561797752 152.7696" height="152.7696" width="236.87870561797752" id="textblock"><g><svg viewBox="0 0 236.87870561797752 152.7696" height="152.7696" width="236.87870561797752"><g transform="matrix(1,0,0,1,0,0)"><svg width="236.87870561797752" viewBox="3.8 -26.1 41.400000000000006 26.700000000000003" height="152.7696" data-palette-color="url(#f73267bc-2b32-4b12-98e9-ea38e432954d)"></svg></g></svg></g></svg></g></svg></g></svg></g></svg></g></svg></g><g><path d="M242.039 0c68.262 0 123.6 55.338 123.6 123.6 0 68.262-55.338 123.6-123.6 123.6-30.402 0-58.24-10.976-79.768-29.183h11.147c19.26 14.022 42.974 22.294 68.621 22.295 64.458 0 116.712-52.254 116.712-116.712 0-64.458-52.254-116.712-116.712-116.712-25.647 0-49.361 8.272-68.621 22.295l-11.147 0c21.528-18.206 49.366-29.183 79.768-29.183z" fill="url(#3a5debb8-c561-46c6-90c6-816c1aefc054)" stroke="transparent" data-fill-palette-color="tertiary"></path></g></svg></g><defs></defs><mask id="a414f63f-6938-4682-8a52-ad72adf26552"><g id="SvgjsG3592"><svg viewBox="0 0 395.52 247.2" height="247.2" width="395.52"><g><svg></svg></g><g><svg viewBox="0 0 395.52 247.2" height="247.2" width="395.52"><g transform="matrix(1,0,0,1,79.32064719101123,47.215199999999996)"><svg viewBox="0 0 236.87870561797752 152.7696" height="152.7696" width="236.87870561797752"><g><svg viewBox="0 0 236.87870561797752 152.7696" height="152.7696" width="236.87870561797752"><g><svg viewBox="0 0 236.87870561797752 152.7696" height="152.7696" width="236.87870561797752"><g><svg viewBox="0 0 236.87870561797752 152.7696" height="152.7696" width="236.87870561797752"><g id="SvgjsG3591"><svg viewBox="0 0 236.87870561797752 152.7696" height="152.7696" width="236.87870561797752" id="SvgjsSvg3590"><g><svg viewBox="0 0 236.87870561797752 152.7696" height="152.7696" width="236.87870561797752"><g transform="matrix(1,0,0,1,0,0)"><svg width="236.87870561797752" viewBox="3.8 -26.1 41.400000000000006 26.700000000000003" height="152.7696" data-palette-color="url(#f73267bc-2b32-4b12-98e9-ea38e432954d)"><path d="M9 0L3.8 0 4.3-4 4.3-21.5 3.8-25.5 7.15-25.5 7.95-22.55 8.5-22.55 8.5-4 9 0ZM7.45-16.45L7.45-16.45 7.45-21.7 11.85-25.45Q13.65-26.1 15.55-26.1L15.55-26.1Q16.4-26.1 17.3-25.98 18.2-25.85 19.15-25.45L19.15-25.45 19.15-22.1 18.35-21.6Q17.5-21.9 16.73-22 15.95-22.1 15.3-22.1L15.3-22.1Q12.35-22.1 10.5-20.58 8.65-19.05 7.45-16.45ZM45.2 0L41.25 0 40.5-2.65 40.5-16.25Q40.5-18.25 39.95-19.63 39.4-21 37.8-21.75 36.2-22.5 33.05-22.5L33.05-22.5Q31.2-22.5 29.62-22.15 28.05-21.8 26.6-20.85L26.6-20.85 25.8-21.35 25.8-24.95Q28-25.65 29.92-25.88 31.85-26.1 33.5-26.1L33.5-26.1Q37.85-26.1 40.27-24.95 42.7-23.8 43.7-21.58 44.7-19.35 44.7-16.1L44.7-16.1 44.7-4 45.2 0ZM32.8 0.6L32.8 0.6Q30.6 0.6 28.45-0.13 26.3-0.85 24.87-2.63 23.45-4.4 23.45-7.5L23.45-7.5Q23.45-9.9 24.35-11.5 25.25-13.1 26.77-14 28.3-14.9 30.2-15.28 32.1-15.65 34.1-15.65L34.1-15.65Q35.3-15.65 36.32-15.55 37.35-15.45 38.35-15.2L38.35-15.2 40.95-13.35 40.95-11.05Q39.65-11.75 38.17-12.03 36.7-12.3 34.8-12.3L34.8-12.3Q31.3-12.3 29.47-11.28 27.65-10.25 27.65-7.45L27.65-7.45Q27.65-5.15 29-4.03 30.35-2.9 33.35-2.9L33.35-2.9Q36.45-2.9 38.27-3.9 40.1-4.9 41.1-6.3L41.1-6.3 42.1-4.05 37.3 0Q36.3 0.25 35.15 0.43 34 0.6 32.8 0.6Z" opacity="1" transform="matrix(1,0,0,1,0,0)" fill="white" class="wordmark-text-0" id="SvgjsPath3589"></path></svg></g></svg></g></svg></g></svg></g></svg></g></svg></g></svg></g><g><path d="M242.039 0c68.262 0 123.6 55.338 123.6 123.6 0 68.262-55.338 123.6-123.6 123.6-30.402 0-58.24-10.976-79.768-29.183h11.147c19.26 14.022 42.974 22.294 68.621 22.295 64.458 0 116.712-52.254 116.712-116.712 0-64.458-52.254-116.712-116.712-116.712-25.647 0-49.361 8.272-68.621 22.295l-11.147 0c21.528-18.206 49.366-29.183 79.768-29.183z" fill="black" stroke="transparent"></path></g></svg></g><defs><mask></mask></defs></svg><rect width="395.52" height="247.2" fill="black" stroke="none" visibility="hidden"></rect></g></mask><linearGradient x1="0" x2="1" y1="0.578" y2="0.595" id="f73267bc-2b32-4b12-98e9-ea38e432954d"><stop stop-color="#6ee2f5" offset="0"></stop><stop stop-color="#6454f0" offset="1"></stop></linearGradient><rect width="395.52" height="247.2" fill="url(#f73267bc-2b32-4b12-98e9-ea38e432954d)" mask="url(#a414f63f-6938-4682-8a52-ad72adf26552)" data-fill-palette-color="primary"></rect><mask id="9f4a8914-8deb-475e-9fbd-16f5436df090"><g id="SvgjsG3615"><svg viewBox="0 0 395.52 247.2" height="247.2" width="395.52"><g><svg></svg></g><g><svg viewBox="0 0 395.52 247.2" height="247.2" width="395.52"><g transform="matrix(1,0,0,1,79.32064719101123,47.215199999999996)"><svg viewBox="0 0 236.87870561797752 152.7696" height="152.7696" width="236.87870561797752"><g><svg viewBox="0 0 236.87870561797752 152.7696" height="152.7696" width="236.87870561797752"><g><svg viewBox="0 0 236.87870561797752 152.7696" height="152.7696" width="236.87870561797752"><g><svg viewBox="0 0 236.87870561797752 152.7696" height="152.7696" width="236.87870561797752"><g id="SvgjsG3614"><svg viewBox="0 0 236.87870561797752 152.7696" height="152.7696" width="236.87870561797752" id="SvgjsSvg3613"><g><svg viewBox="0 0 236.87870561797752 152.7696" height="152.7696" width="236.87870561797752"><g transform="matrix(1,0,0,1,0,0)"><svg width="236.87870561797752" viewBox="3.8 -26.1 41.400000000000006 26.700000000000003" height="152.7696" data-palette-color="url(#f73267bc-2b32-4b12-98e9-ea38e432954d)"></svg></g></svg></g></svg></g></svg></g></svg></g></svg></g></svg></g><g><path d="M242.039 0c68.262 0 123.6 55.338 123.6 123.6 0 68.262-55.338 123.6-123.6 123.6-30.402 0-58.24-10.976-79.768-29.183h11.147c19.26 14.022 42.974 22.294 68.621 22.295 64.458 0 116.712-52.254 116.712-116.712 0-64.458-52.254-116.712-116.712-116.712-25.647 0-49.361 8.272-68.621 22.295l-11.147 0c21.528-18.206 49.366-29.183 79.768-29.183z" fill="white" stroke="transparent"></path></g></svg></g><defs><mask></mask></defs><mask><g id="SvgjsG3612"><svg viewBox="0 0 395.52 247.2" height="247.2" width="395.52"><g><svg></svg></g><g><svg viewBox="0 0 395.52 247.2" height="247.2" width="395.52"><g transform="matrix(1,0,0,1,79.32064719101123,47.215199999999996)"><svg viewBox="0 0 236.87870561797752 152.7696" height="152.7696" width="236.87870561797752"><g><svg viewBox="0 0 236.87870561797752 152.7696" height="152.7696" width="236.87870561797752"><g><svg viewBox="0 0 236.87870561797752 152.7696" height="152.7696" width="236.87870561797752"><g><svg viewBox="0 0 236.87870561797752 152.7696" height="152.7696" width="236.87870561797752"><g id="SvgjsG3611"><svg viewBox="0 0 236.87870561797752 152.7696" height="152.7696" width="236.87870561797752" id="SvgjsSvg3610"><g><svg viewBox="0 0 236.87870561797752 152.7696" height="152.7696" width="236.87870561797752"><g transform="matrix(1,0,0,1,0,0)"><svg width="236.87870561797752" viewBox="3.8 -26.1 41.400000000000006 26.700000000000003" height="152.7696" data-palette-color="url(#f73267bc-2b32-4b12-98e9-ea38e432954d)"><path d="M9 0L3.8 0 4.3-4 4.3-21.5 3.8-25.5 7.15-25.5 7.95-22.55 8.5-22.55 8.5-4 9 0ZM7.45-16.45L7.45-16.45 7.45-21.7 11.85-25.45Q13.65-26.1 15.55-26.1L15.55-26.1Q16.4-26.1 17.3-25.98 18.2-25.85 19.15-25.45L19.15-25.45 19.15-22.1 18.35-21.6Q17.5-21.9 16.73-22 15.95-22.1 15.3-22.1L15.3-22.1Q12.35-22.1 10.5-20.58 8.65-19.05 7.45-16.45ZM45.2 0L41.25 0 40.5-2.65 40.5-16.25Q40.5-18.25 39.95-19.63 39.4-21 37.8-21.75 36.2-22.5 33.05-22.5L33.05-22.5Q31.2-22.5 29.62-22.15 28.05-21.8 26.6-20.85L26.6-20.85 25.8-21.35 25.8-24.95Q28-25.65 29.92-25.88 31.85-26.1 33.5-26.1L33.5-26.1Q37.85-26.1 40.27-24.95 42.7-23.8 43.7-21.58 44.7-19.35 44.7-16.1L44.7-16.1 44.7-4 45.2 0ZM32.8 0.6L32.8 0.6Q30.6 0.6 28.45-0.13 26.3-0.85 24.87-2.63 23.45-4.4 23.45-7.5L23.45-7.5Q23.45-9.9 24.35-11.5 25.25-13.1 26.77-14 28.3-14.9 30.2-15.28 32.1-15.65 34.1-15.65L34.1-15.65Q35.3-15.65 36.32-15.55 37.35-15.45 38.35-15.2L38.35-15.2 40.95-13.35 40.95-11.05Q39.65-11.75 38.17-12.03 36.7-12.3 34.8-12.3L34.8-12.3Q31.3-12.3 29.47-11.28 27.65-10.25 27.65-7.45L27.65-7.45Q27.65-5.15 29-4.03 30.35-2.9 33.35-2.9L33.35-2.9Q36.45-2.9 38.27-3.9 40.1-4.9 41.1-6.3L41.1-6.3 42.1-4.05 37.3 0Q36.3 0.25 35.15 0.43 34 0.6 32.8 0.6Z" opacity="1" transform="matrix(1,0,0,1,0,0)" fill="black" class="wordmark-text-0" id="SvgjsPath3609"></path></svg></g></svg></g></svg></g></svg></g></svg></g></svg></g></svg></g><g><path d="M242.039 0c68.262 0 123.6 55.338 123.6 123.6 0 68.262-55.338 123.6-123.6 123.6-30.402 0-58.24-10.976-79.768-29.183h11.147c19.26 14.022 42.974 22.294 68.621 22.295 64.458 0 116.712-52.254 116.712-116.712 0-64.458-52.254-116.712-116.712-116.712-25.647 0-49.361 8.272-68.621 22.295l-11.147 0c21.528-18.206 49.366-29.183 79.768-29.183z" fill="black" stroke="transparent"></path></g></svg></g><defs><mask></mask></defs></svg><rect width="395.52" height="247.2" fill="black" stroke="none" visibility="hidden"></rect></g></mask></svg><rect width="395.52" height="247.2" fill="black" stroke="none" visibility="hidden"></rect></g></mask><linearGradient x1="0" x2="1" y1="0.548" y2="0.55" id="3a5debb8-c561-46c6-90c6-816c1aefc054"><stop stop-color="#ff6cab" offset="0"></stop><stop stop-color="#7366ff" offset="1"></stop></linearGradient></svg><rect width="395.52" height="247.2" fill="none" stroke="none" visibility="hidden"></rect></g></svg></g></svg>